<svg width="32" height="32" viewBox="0 0 32 32" fill="none" xmlns="http://www.w3.org/2000/svg">
<g clip-path="url(#clip0_2134_4721)">
<path d="M14.667 9.33268H17.3337V11.9993H14.667V9.33268ZM14.667 14.666H17.3337V22.666H14.667V14.666ZM16.0003 2.66602C8.64033 2.66602 2.66699 8.63935 2.66699 15.9993C2.66699 23.3593 8.64033 29.3327 16.0003 29.3327C23.3603 29.3327 29.3337 23.3593 29.3337 15.9993C29.3337 8.63935 23.3603 2.66602 16.0003 2.66602ZM16.0003 26.666C10.1203 26.666 5.33366 21.8793 5.33366 15.9993C5.33366 10.1193 10.1203 5.33268 16.0003 5.33268C21.8803 5.33268 26.667 10.1193 26.667 15.9993C26.667 21.8793 21.8803 26.666 16.0003 26.666Z" fill="#2A3176"/>
</g>
<defs>
<clipPath id="clip0_2134_4721">
<rect width="32" height="32" fill="white"/>
</clipPath>
</defs>
</svg>
