<svg width="32" height="32" viewBox="0 0 32 32" fill="none" xmlns="http://www.w3.org/2000/svg">
<path fill-rule="evenodd" clip-rule="evenodd" d="M12 19.346C12 19.1558 11.9458 18.9695 11.8437 18.8091L2.87517 4.71567C2.31031 3.82804 2.94793 2.6665 4.00005 2.6665H28C29.0522 2.6665 29.6898 3.82804 29.1249 4.71567L20.1564 18.8091C20.0543 18.9695 20 19.1558 20 19.346V25.3332C20 25.8382 19.7147 26.2999 19.263 26.5257L13.9297 29.1924C13.0431 29.6357 12 28.991 12 27.9998V19.346ZM8.25062 5.33317C7.46153 5.33317 6.98331 6.20432 7.40696 6.87005L14.4583 17.9507C14.5944 18.1646 14.6667 18.4129 14.6667 18.6665V24.2244C14.6667 24.9678 15.449 25.4513 16.1139 25.1189L16.7806 24.7855C17.1194 24.6161 17.3334 24.2699 17.3334 23.8911V18.6665C17.3334 18.4129 17.4057 18.1646 17.5418 17.9507L24.5931 6.87005C25.0168 6.20432 24.5386 5.33317 23.7495 5.33317H8.25062Z" fill="#2A3176"/>
</svg>
