<svg width="32" height="32" viewBox="0 0 32 32" fill="none" xmlns="http://www.w3.org/2000/svg">
<path fill-rule="evenodd" clip-rule="evenodd" d="M11.9996 19.3465C11.9996 19.1563 11.9453 18.97 11.8432 18.8096L2.87468 4.71616C2.30982 3.82853 2.94744 2.66699 3.99956 2.66699H27.9996C29.0517 2.66699 29.6893 3.82853 29.1244 4.71616L20.1559 18.8096C20.0538 18.97 19.9996 19.1563 19.9996 19.3465V25.3337C19.9996 25.8387 19.7142 26.3004 19.2625 26.5262L13.9292 29.1929C13.0426 29.6362 11.9996 28.9915 11.9996 28.0003V19.3465ZM8.25014 5.33398C7.46105 5.33398 6.98284 6.20513 7.40648 6.87086L14.4578 17.9515C14.5939 18.1654 14.6662 18.4137 14.6662 18.6673V24.2252C14.6662 24.9686 15.4485 25.4521 16.1134 25.1197L16.7801 24.7863C17.1189 24.6169 17.3329 24.2707 17.3329 23.8919V18.6673C17.3329 18.4137 17.4052 18.1654 17.5414 17.9515L24.5927 6.87086C25.0163 6.20514 24.5381 5.33398 23.749 5.33398H8.25014Z" fill="#6CC276"/>
</svg>
