<svg width="29" height="30" viewBox="0 0 29 30" fill="none" xmlns="http://www.w3.org/2000/svg">
<path fill-rule="evenodd" clip-rule="evenodd" d="M11.4551 17.7664C11.4551 17.5866 11.4067 17.4102 11.3149 17.2557L4.50991 5.79722C4.07999 5.07329 4.56529 4.12598 5.36609 4.12598H23.6331C24.4339 4.12598 24.9192 5.07329 24.4893 5.79722L17.6843 17.2557C17.5925 17.4102 17.5441 17.5866 17.5441 17.7664V22.6123C17.5441 23.0242 17.3269 23.4007 16.9831 23.5849L12.9238 25.7598C12.249 26.1213 11.4551 25.5955 11.4551 24.7871V17.7664ZM7.64932 5.56461C6.85444 5.56461 6.3773 6.44719 6.81262 7.11226L13.0982 16.7153C13.2219 16.9043 13.2876 17.1238 13.2876 17.3479V22.0916C13.2876 22.8301 14.0606 23.3138 14.7248 22.991L15.1488 22.7849C15.4931 22.6175 15.7116 22.2683 15.7116 21.8855V17.3479C15.7116 17.1238 15.7773 16.9043 15.9011 16.7153L22.1866 7.11226C22.6219 6.44719 22.1448 5.56461 21.3499 5.56461H7.64932Z" fill="#CDD6E8"/>
</svg>
