<svg width="36" height="36" viewBox="0 0 36 36" fill="none" xmlns="http://www.w3.org/2000/svg">
<g clip-path="url(#clip0_1822_11534)">
<path d="M23 13.5C23.5523 13.5 24 13.9477 24 14.5V27.5C24 28.0523 23.5523 28.5 23 28.5H13C12.4477 28.5 12 28.0523 12 27.5V14.5C12 13.9477 12.4477 13.5 13 13.5H23ZM22.0429 4.79289C21.8554 4.60536 21.601 4.5 21.3358 4.5H14.6642C14.399 4.5 14.1446 4.60536 13.9571 4.79289L13.0429 5.70711C12.8554 5.89464 12.601 6 12.3358 6H8.5C7.94772 6 7.5 6.44772 7.5 7V8C7.5 8.55228 7.94772 9 8.5 9H27.5C28.0523 9 28.5 8.55228 28.5 8V7C28.5 6.44772 28.0523 6 27.5 6H23.6642C23.399 6 23.1446 5.89464 22.9571 5.70711L22.0429 4.79289ZM27 11.5C27 10.9477 26.5523 10.5 26 10.5H10C9.44772 10.5 9 10.9477 9 11.5V28.5C9 30.15 10.35 31.5 12 31.5H24C25.65 31.5 27 30.15 27 28.5V11.5Z" fill="#111424"/>
</g>
<defs>
<clipPath id="clip0_1822_11534">
<rect width="36" height="36" fill="white"/>
</clipPath>
</defs>
</svg>
