<svg width="42" height="42" viewBox="0 0 42 42" fill="none" xmlns="http://www.w3.org/2000/svg">
<g clip-path="url(#clip0_175_3253)">
<path d="M36.7157 17.7186C37.383 17.1395 37.0264 16.0429 36.1462 15.967L26.517 15.1367C26.1481 15.1049 25.827 14.8719 25.6824 14.5311L21.9212 5.67023C21.5763 4.85763 20.4245 4.85794 20.08 5.67073L16.3178 14.5473C16.1731 14.8888 15.8512 15.1221 15.4816 15.1535L5.86163 15.9696C4.9802 16.0444 4.6228 17.1427 5.29139 17.7219L12.5988 24.0523C12.8794 24.2953 13.0022 24.6738 12.9179 25.0353L10.7234 34.442C10.5225 35.3035 11.4567 35.9825 12.214 35.5254L20.4833 30.5344C20.8011 30.3426 21.1989 30.3426 21.5167 30.5344L29.7898 35.5277C30.5466 35.9844 31.4804 35.3067 31.2807 34.4457L29.0985 25.034C29.0148 24.6732 29.1375 24.2957 29.4172 24.0529L36.7157 17.7186Z" fill="#6CC276"/>
</g>
<defs>
<clipPath id="clip0_175_3253">
<rect width="42" height="42" fill="white"/>
</clipPath>
</defs>
</svg>
